STARTFONT 2.3
FONT -FontForge-Henny Penny-Book-R-Normal--9-90-72-72-P-51-ISO10646-1
SIZE 9 72 72  4
FONTBOUNDINGBOX 14 17 -2 -6
COMMENT "Generated by fontforge, http://fontforge.sourceforge.net"
COMMENT "Copyright (c) 2012, Brownfox (gayaneh.b@gmail.com), with Reserved Font Name "Henny Penny""
STARTPROPERTIES 40
FOUNDRY "FontForge"
FAMILY_NAME "Henny Penny"
WEIGHT_NAME "Book"
SLANT "R"
SETWIDTH_NAME "Normal"
ADD_STYLE_NAME ""
PIXEL_SIZE 9
POINT_SIZE 90
RESOLUTION_X 72
RESOLUTION_Y 72
SPACING "P"
AVERAGE_WIDTH 51
CHARSET_REGISTRY "ISO10646"
CHARSET_ENCODING "1"
FONTNAME_REGISTRY ""
CHARSET_COLLECTIONS "ISO10646-1"
BITS_PER_PIXEL 4
FONT_NAME "HennyPenny-Regular"
FACE_NAME "Henny Penny"
COPYRIGHT "Copyright (c) 2012, Brownfox (gayaneh.b@gmail.com), with Reserved Font Name "Henny Penny""
FONT_VERSION "1.001"
FONT_ASCENT 7
FONT_DESCENT 2
UNDERLINE_POSITION -1
UNDERLINE_THICKNESS 1
X_HEIGHT 5
CAP_HEIGHT 7
RAW_ASCENT 799
RAW_DESCENT 200
NORM_SPACE 2
RELATIVE_WEIGHT 40
RELATIVE_SETWIDTH 50
SUPERSCRIPT_X 0
SUPERSCRIPT_Y 3
SUPERSCRIPT_SIZE 5
SUBSCRIPT_X 0
SUBSCRIPT_Y 0
SUBSCRIPT_SIZE 5
AVG_LOWERCASE_WIDTH 47
AVG_UPPERCASE_WIDTH 65
ENDPROPERTIES
CHARS 233
STARTCHAR space
ENCODING 32
SWIDTH 270 0
DWIDTH 2 0
BBX 1 1 0 0
BITMAP
00
ENDCHAR
STARTCHAR exclam
ENCODING 33
SWIDTH 249 0
DWIDTH 2 0
BBX 2 9 0 0
BITMAP
79
7B
4A
39
18
06
02
00
67
ENDCHAR
STARTCHAR quotedbl
ENCODING 34
SWIDTH 292 0
DWIDTH 3 0
BBX 3 3 0 4
BITMAP
7720
6720
4400
ENDCHAR
STARTCHAR numbersign
ENCODING 35
SWIDTH 1030 0
DWIDTH 9 0
BBX 9 11 0 -3
BITMAP
0000010000
0000311000
0000523000
2446783320
0006240010
0016734200
25B6600000
0086000000
0536000000
0152000000
0040000000
ENDCHAR
STARTCHAR dollar
ENCODING 36
SWIDTH 799 0
DWIDTH 7 0
BBX 7 10 0 -2
BITMAP
00004110
005EEC00
00C65700
00AD3100
002DB000
0006E600
04045A00
0A738900
15BFB100
00400000
ENDCHAR
STARTCHAR percent
ENCODING 37
SWIDTH 789 0
DWIDTH 7 0
BBX 7 8 0 0
BITMAP
3DD30410
77572400
3DD36000
00070000
00520000
0342DE60
160772C0
5003EE60
ENDCHAR
STARTCHAR ampersand
ENCODING 38
SWIDTH 773 0
DWIDTH 7 0
BBX 7 9 0 -1
BITMAP
04EC0000
09190000
09650000
0A903B00
4CB21900
A7870600
9C2C7300
2BFCE640
00003D20
ENDCHAR
STARTCHAR quotesingle
ENCODING 39
SWIDTH 174 0
DWIDTH 2 0
BBX 2 3 0 4
BITMAP
71
61
30
ENDCHAR
STARTCHAR parenleft
ENCODING 40
SWIDTH 431 0
DWIDTH 4 0
BBX 4 13 0 -4
BITMAP
0310
0700
5500
9300
C100
D100
D200
B400
7800
1D00
0760
00A2
0005
ENDCHAR
STARTCHAR parenright
ENCODING 41
SWIDTH 443 0
DWIDTH 4 0
BBX 4 9 0 -2
BITMAP
2600
04B0
0096
004B
002D
003C
0076
02A0
4710
ENDCHAR
STARTCHAR asterisk
ENCODING 42
SWIDTH 490 0
DWIDTH 4 0
BBX 4 5 0 4
BITMAP
0010
0284
5895
0685
0205
ENDCHAR
STARTCHAR plus
ENCODING 43
SWIDTH 440 0
DWIDTH 4 0
BBX 4 6 0 1
BITMAP
0010
0040
0151
8FE5
0050
0050
ENDCHAR
STARTCHAR comma
ENCODING 44
SWIDTH 251 0
DWIDTH 2 0
BBX 2 3 0 -2
BITMAP
7A
2A
23
ENDCHAR
STARTCHAR hyphen
ENCODING 45
SWIDTH 436 0
DWIDTH 4 0
BBX 4 2 0 2
BITMAP
1000
5EE4
ENDCHAR
STARTCHAR period
ENCODING 46
SWIDTH 238 0
DWIDTH 2 0
BBX 2 1 0 0
BITMAP
69
ENDCHAR
STARTCHAR slash
ENCODING 47
SWIDTH 690 0
DWIDTH 6 0
BBX 6 9 0 0
BITMAP
000001
000006
000052
000250
000700
007100
043000
150000
500000
ENDCHAR
STARTCHAR zero
ENCODING 48
SWIDTH 723 0
DWIDTH 7 0
BBX 7 6 0 1
BITMAP
08EEB300
8A216E10
D2000C50
C4000B50
7C314E10
07DEC300
ENDCHAR
STARTCHAR one
ENCODING 49
SWIDTH 505 0
DWIDTH 5 0
BBX 5 8 0 -1
BITMAP
025000
3D9000
B8C000
01E000
00D300
00C800
06EF50
393000
ENDCHAR
STARTCHAR two
ENCODING 50
SWIDTH 534 0
DWIDTH 5 0
BBX 5 8 0 -1
BITMAP
3CE700
716F10
301E00
005800
018000
360000
485130
005D10
ENDCHAR
STARTCHAR three
ENCODING 51
SWIDTH 511 0
DWIDTH 5 0
BBX 5 8 0 -1
BITMAP
210000
9FE800
511100
018100
004D20
400880
921B70
3CFB10
ENDCHAR
STARTCHAR four
ENCODING 52
SWIDTH 712 0
DWIDTH 6 0
BBX 7 9 0 -2
BITMAP
00080000
005B0000
041D0000
620C2000
586A6000
002AE900
0003D100
000BEA10
00001430
ENDCHAR
STARTCHAR five
ENCODING 53
SWIDTH 757 0
DWIDTH 7 0
BBX 7 8 0 -1
BITMAP
0009A360
00327F40
00820200
0017B100
3000B600
5000C600
9316E200
3CEC4000
ENDCHAR
STARTCHAR six
ENCODING 54
SWIDTH 598 0
DWIDTH 5 0
BBX 6 7 0 0
BITMAP
07DE70
5C2172
BBED60
DA12D2
C50094
6B12C1
08ED50
ENDCHAR
STARTCHAR seven
ENCODING 55
SWIDTH 507 0
DWIDTH 5 0
BBX 5 9 0 -1
BITMAP
100220
DFFF20
513700
002200
006000
028000
085000
0E4000
010000
ENDCHAR
STARTCHAR eight
ENCODING 56
SWIDTH 476 0
DWIDTH 4 0
BBX 5 7 0 0
BITMAP
3DE500
8B1500
5E8100
29C900
800B20
B21B20
5EE700
ENDCHAR
STARTCHAR nine
ENCODING 57
SWIDTH 601 0
DWIDTH 5 0
BBX 6 7 0 0
BITMAP
2BEB30
B618D0
D101F3
B814F4
2CFDF2
0017A0
5DE910
ENDCHAR
STARTCHAR colon
ENCODING 58
SWIDTH 246 0
DWIDTH 2 0
BBX 2 4 0 0
BITMAP
68
00
00
59
ENDCHAR
STARTCHAR semicolon
ENCODING 59
SWIDTH 266 0
DWIDTH 2 0
BBX 2 6 0 -2
BITMAP
4C
00
00
6B
2A
32
ENDCHAR
STARTCHAR less
ENCODING 60
SWIDTH 522 0
DWIDTH 5 0
BBX 5 5 0 0
BITMAP
001500
045000
380000
017500
000210
ENDCHAR
STARTCHAR equal
ENCODING 61
SWIDTH 655 0
DWIDTH 6 0
BBX 6 2 0 2
BITMAP
026AE6
9FFE90
ENDCHAR
STARTCHAR greater
ENCODING 62
SWIDTH 533 0
DWIDTH 5 0
BBX 5 5 0 0
BITMAP
250000
016400
000810
016100
030000
ENDCHAR
STARTCHAR question
ENCODING 63
SWIDTH 564 0
DWIDTH 5 0
BBX 5 9 0 -1
BITMAP
1BEC30
961AB0
C706B0
8C1C40
029300
040000
0D2000
000000
093000
ENDCHAR
STARTCHAR at
ENCODING 64
SWIDTH 898 0
DWIDTH 8 0
BBX 8 9 0 -3
BITMAP
006DFD40
078213A2
266ECD06
52D16C05
54A02B05
53E27C26
439FAAD1
0A40B300
02CFC100
ENDCHAR
STARTCHAR A
ENCODING 65
SWIDTH 784 0
DWIDTH 7 0
BBX 8 8 0 0
BITMAP
07EE1000
004C5000
0066B000
0072F100
05EEF700
0902BC00
ED203F50
1520DFF2
ENDCHAR
STARTCHAR B
ENCODING 66
SWIDTH 685 0
DWIDTH 6 0
BBX 6 9 0 -2
BITMAP
39CFC1
0A32E3
085350
07EEE5
07607D
07802F
08B17C
0BFFC3
520000
ENDCHAR
STARTCHAR C
ENCODING 67
SWIDTH 742 0
DWIDTH 7 0
BBX 7 8 0 -1
BITMAP
00000400
06DFEE00
6E413D00
C8000330
E6000000
CA000040
6F711640
06DFD700
ENDCHAR
STARTCHAR D
ENCODING 68
SWIDTH 726 0
DWIDTH 7 0
BBX 7 8 0 -2
BITMAP
9BDFE600
2E317F20
0B200E60
0A300E50
0A707D10
0DFEA200
6B400000
50000000
ENDCHAR
STARTCHAR E
ENCODING 69
SWIDTH 557 0
DWIDTH 5 0
BBX 5 9 0 -2
BITMAP
546B70
5F2040
0F1000
0D2200
0BE500
094410
085060
BFFDD0
001330
ENDCHAR
STARTCHAR F
ENCODING 70
SWIDTH 533 0
DWIDTH 5 0
BBX 5 8 0 0
BITMAP
246AD0
8F7080
0C5040
096400
07F600
067400
078100
ACD400
ENDCHAR
STARTCHAR G
ENCODING 71
SWIDTH 750 0
DWIDTH 7 0
BBX 7 7 0 0
BITMAP
00000030
06DE6250
6E404D10
C7001A30
E60AFF30
AC204D00
1AEEA700
ENDCHAR
STARTCHAR H
ENCODING 72
SWIDTH 743 0
DWIDTH 7 0
BBX 7 11 0 -2
BITMAP
31000000
0DF91440
0C45FF50
0B403D00
0B403C00
0CFEEC00
0C501C00
0C401C00
0D43FF70
AFA01010
20100000
ENDCHAR
STARTCHAR I
ENCODING 73
SWIDTH 438 0
DWIDTH 4 0
BBX 6 10 -1 -2
BITMAP
2DDDE6
02DB10
00B600
00B400
00B200
00B100
00B000
00C100
08FF10
351000
ENDCHAR
STARTCHAR J
ENCODING 74
SWIDTH 628 0
DWIDTH 6 0
BBX 7 11 0 -2
BITMAP
00014910
00EFE600
000C9000
00089000
00068000
00067000
00076000
00094000
9D1D1000
92880000
8EA00000
ENDCHAR
STARTCHAR K
ENCODING 75
SWIDTH 866 0
DWIDTH 8 0
BBX 8 9 0 -1
BITMAP
01414000
DFA1EF70
1F228100
0D6A0000
0CCE3005
0B3AE517
0B407DF8
3FD10000
00310000
ENDCHAR
STARTCHAR L
ENCODING 76
SWIDTH 660 0
DWIDTH 6 0
BBX 6 8 0 -1
BITMAP
310000
9FEE10
07E100
06B000
06A021
07A036
7EFFFA
221000
ENDCHAR
STARTCHAR M
ENCODING 77
SWIDTH 1089 0
DWIDTH 10 0
BBX 10 8 0 -1
BITMAP
00000009F3
05DB001E20
0089903D10
0052E62A40
00407A0680
00201204E2
D7100009FF
BA00001310
ENDCHAR
STARTCHAR N
ENCODING 78
SWIDTH 799 0
DWIDTH 7 0
BBX 8 10 0 -3
BITMAP
01000010
EFA07EE2
0BF90710
058F8500
040AFC00
0400BD00
04001900
19000000
DFA00000
00300000
ENDCHAR
STARTCHAR O
ENCODING 79
SWIDTH 747 0
DWIDTH 7 0
BBX 7 7 0 0
BITMAP
06DFB300
6C219E20
C4000D70
E3000AA0
C6000A80
6E415E20
06DFC400
ENDCHAR
STARTCHAR P
ENCODING 80
SWIDTH 623 0
DWIDTH 6 0
BBX 6 8 0 -1
BITMAP
EFFFD3
09C198
05A1A7
04FFB1
059000
06A000
07B000
3DF610
ENDCHAR
STARTCHAR Q
ENCODING 81
SWIDTH 804 0
DWIDTH 7 0
BBX 11 11 0 -4
BITMAP
05CFD7000000
5C215E800000
C30005F00000
E20001F10000
C605E9E00000
6E662C800000
06DFDAA00000
000003E00000
000000F50030
000000AD2510
0000002CE700
ENDCHAR
STARTCHAR R
ENCODING 82
SWIDTH 869 0
DWIDTH 8 0
BBX 9 7 0 -1
BITMAP
EFFFC10000
1C91C60000
0863D20000
06FF700000
0677F61410
AFE37DFA00
0011000000
ENDCHAR
STARTCHAR S
ENCODING 83
SWIDTH 517 0
DWIDTH 5 0
BBX 5 9 0 -1
BITMAP
000010
06E640
0D3450
084020
00A300
301C10
700780
A619A0
33EC20
ENDCHAR
STARTCHAR T
ENCODING 84
SWIDTH 659 0
DWIDTH 6 0
BBX 7 9 0 -1
BITMAP
CFFFFF20
700C0510
300D0000
000E0000
000E0000
001F0000
003F3000
00CFF900
05610000
ENDCHAR
STARTCHAR U
ENCODING 85
SWIDTH 690 0
DWIDTH 6 0
BBX 7 6 0 0
BITMAP
13790000
EFC9EE90
1E602800
0D600500
0AC14500
02CFB000
ENDCHAR
STARTCHAR V
ENCODING 86
SWIDTH 798 0
DWIDTH 7 0
BBX 8 7 0 0
BITMAP
00250001
DFE6016B
05F24FD2
008B0440
001E8600
0007F300
00019000
ENDCHAR
STARTCHAR W
ENCODING 87
SWIDTH 1120 0
DWIDTH 10 0
BBX 12 8 0 -1
BITMAP
000000004100
00200000AFF2
4B3000001900
1C5074005100
06B15D106000
01F80B961000
00B304F70000
001000A10000
ENDCHAR
STARTCHAR X
ENCODING 88
SWIDTH 868 0
DWIDTH 8 0
BBX 8 9 0 -1
BITMAP
00240000
EFFD0200
03CC02E4
001D7720
0006F400
00056900
02800A30
AFE1BFC3
01520002
ENDCHAR
STARTCHAR Y
ENCODING 89
SWIDTH 796 0
DWIDTH 7 0
BBX 8 10 0 -2
BITMAP
01410220
DFB105FE
19C10330
009D6300
000B9000
00068000
00069000
000AA000
00CFF400
00003200
ENDCHAR
STARTCHAR Z
ENCODING 90
SWIDTH 627 0
DWIDTH 6 0
BBX 6 9 0 -1
BITMAP
320110
7FFF10
517B00
00A400
00D000
048003
083037
0DADFB
185201
ENDCHAR
STARTCHAR bracketleft
ENCODING 91
SWIDTH 344 0
DWIDTH 3 0
BBX 3 9 0 -2
BITMAP
3D70
6810
8500
9400
B300
C300
D300
D500
BFB0
ENDCHAR
STARTCHAR backslash
ENCODING 92
SWIDTH 347 0
DWIDTH 3 0
BBX 3 10 0 -1
BITMAP
2000
5000
5000
2300
0500
0500
0410
0150
0060
0050
ENDCHAR
STARTCHAR bracketright
ENCODING 93
SWIDTH 334 0
DWIDTH 3 0
BBX 3 9 0 -2
BITMAP
0110
5F60
1880
0790
06B0
06C0
06D0
0B80
4100
ENDCHAR
STARTCHAR asciicircum
ENCODING 94
SWIDTH 658 0
DWIDTH 6 0
BBX 6 2 0 5
BITMAP
05C930
7B59D5
ENDCHAR
STARTCHAR underscore
ENCODING 95
SWIDTH 678 0
DWIDTH 6 0
BBX 6 2 0 -4
BITMAP
169CE9
232100
ENDCHAR
STARTCHAR grave
ENCODING 96
SWIDTH 278 0
DWIDTH 3 0
BBX 2 2 0 7
BITMAP
65
08
ENDCHAR
STARTCHAR a
ENCODING 97
SWIDTH 527 0
DWIDTH 5 0
BBX 5 7 0 -1
BITMAP
3ED100
578700
004A00
5DFD00
C33F00
8E9D60
0007C0
ENDCHAR
STARTCHAR b
ENCODING 98
SWIDTH 582 0
DWIDTH 5 0
BBX 7 11 -1 -1
BITMAP
04500000
AF600000
07700000
05700000
04800000
04900000
03BBE700
02C13F10
02E13E00
04FFE600
0C510000
ENDCHAR
STARTCHAR c
ENCODING 99
SWIDTH 437 0
DWIDTH 4 0
BBX 4 5 0 1
BITMAP
1CE5
93A7
B004
B517
3DE4
ENDCHAR
STARTCHAR d
ENCODING 100
SWIDTH 523 0
DWIDTH 5 0
BBX 5 9 0 0
BITMAP
00BF10
000E10
000E00
000D00
000D00
4DEE00
C60C00
C61D10
5EFEB0
ENDCHAR
STARTCHAR e
ENCODING 101
SWIDTH 434 0
DWIDTH 4 0
BBX 4 5 0 0
BITMAP
1BE6
964B
CFD4
B705
3CE6
ENDCHAR
STARTCHAR f
ENCODING 102
SWIDTH 299 0
DWIDTH 3 0
BBX 6 12 -1 -2
BITMAP
002DC1
008383
0096D1
01B100
4EFA10
02C000
01C000
01D000
01D000
01E100
09FF10
051000
ENDCHAR
STARTCHAR g
ENCODING 103
SWIDTH 567 0
DWIDTH 5 0
BBX 7 8 -1 -3
BITMAP
00008E20
03DEAB30
09A1E100
04EF9000
01DEB300
0A516B00
1F505A00
08EEA100
ENDCHAR
STARTCHAR h
ENCODING 104
SWIDTH 566 0
DWIDTH 5 0
BBX 7 9 -1 0
BITMAP
1EF10000
00C00000
00A00000
00A00000
00B00000
01BCD200
03D1B500
0690A500
4FF6EE10
ENDCHAR
STARTCHAR i
ENCODING 105
SWIDTH 301 0
DWIDTH 3 0
BBX 3 6 0 1
BITMAP
1C00
DF00
2D00
1C00
3B00
CF80
ENDCHAR
STARTCHAR j
ENCODING 106
SWIDTH 367 0
DWIDTH 3 0
BBX 5 10 -1 -5
BITMAP
008400
000100
07FC00
006F00
000E10
000B10
000A10
AB0A00
915900
8EB100
ENDCHAR
STARTCHAR k
ENCODING 107
SWIDTH 567 0
DWIDTH 5 0
BBX 6 10 -1 -1
BITMAP
9F9000
039000
01A000
01A310
00B6F6
00C630
00EC00
00DA64
01F3DC
1CCD40
ENDCHAR
STARTCHAR l
ENCODING 108
SWIDTH 354 0
DWIDTH 3 0
BBX 5 8 -1 0
BITMAP
04B000
6CE000
00F000
00D100
00C200
00A300
00A500
07FF20
ENDCHAR
STARTCHAR m
ENCODING 109
SWIDTH 708 0
DWIDTH 6 0
BBX 7 5 0 0
BITMAP
03000000
3DDBD900
0C8F4C00
8F515B00
00100310
ENDCHAR
STARTCHAR n
ENCODING 110
SWIDTH 584 0
DWIDTH 5 0
BBX 6 7 0 -1
BITMAP
030000
6B3E70
1C34C0
0B11C0
0823B0
4FCFA0
001151
ENDCHAR
STARTCHAR o
ENCODING 111
SWIDTH 503 0
DWIDTH 5 0
BBX 5 4 0 1
BITMAP
3CE900
B71C40
B91A30
3CE900
ENDCHAR
STARTCHAR p
ENCODING 112
SWIDTH 509 0
DWIDTH 5 0
BBX 5 10 0 -5
BITMAP
AD0000
0DCD20
0C1960
0C1A50
0EEB00
0E0000
0E0000
2F1000
AFB000
002000
ENDCHAR
STARTCHAR q
ENCODING 113
SWIDTH 505 0
DWIDTH 5 0
BBX 5 9 0 -5
BITMAP
6EDB10
C53A00
7FDA00
003A00
003A00
003A00
004A00
05FE40
001540
ENDCHAR
STARTCHAR r
ENCODING 114
SWIDTH 414 0
DWIDTH 4 0
BBX 5 6 0 0
BITMAP
CADE20
1F7A20
0E1000
0D1000
0D4000
9FF100
ENDCHAR
STARTCHAR s
ENCODING 115
SWIDTH 482 0
DWIDTH 4 0
BBX 5 8 0 -1
BITMAP
000100
07E800
0B1700
035100
024600
340B20
561D40
03EB00
ENDCHAR
STARTCHAR t
ENCODING 116
SWIDTH 434 0
DWIDTH 4 0
BBX 4 7 0 0
BITMAP
0070
0770
BFF5
1E20
4A00
5C19
1BE6
ENDCHAR
STARTCHAR u
ENCODING 117
SWIDTH 744 0
DWIDTH 7 0
BBX 7 5 0 0
BITMAP
BE0AF300
0B209500
09509700
06A19FA0
01DD2200
ENDCHAR
STARTCHAR v
ENCODING 118
SWIDTH 600 0
DWIDTH 5 0
BBX 6 6 0 0
BITMAP
284000
2D5000
0798F3
01E150
009A00
002700
ENDCHAR
STARTCHAR w
ENCODING 119
SWIDTH 745 0
DWIDTH 7 0
BBX 7 5 0 0
BITMAP
16100890
DF173710
1E6AC600
09D1B200
02700000
ENDCHAR
STARTCHAR x
ENCODING 120
SWIDTH 548 0
DWIDTH 5 0
BBX 5 5 0 1
BITMAP
03B100
FF8CD0
18F700
03E700
79DF90
ENDCHAR
STARTCHAR y
ENCODING 121
SWIDTH 659 0
DWIDTH 6 0
BBX 6 9 0 -4
BITMAP
179001
CE1AFC
3E00C5
0E61D4
05EBB2
0000B0
000190
0BBA40
0BE700
ENDCHAR
STARTCHAR z
ENCODING 122
SWIDTH 460 0
DWIDTH 4 0
BBX 5 5 0 -1
BITMAP
BEF500
507000
072420
5FFF20
210000
ENDCHAR
STARTCHAR braceleft
ENCODING 123
SWIDTH 460 0
DWIDTH 4 0
BBX 4 12 0 -3
BITMAP
01DB
0580
0680
04B0
05C0
6B40
1710
0570
04A0
05A0
05C4
01DB
ENDCHAR
STARTCHAR bar
ENCODING 124
SWIDTH 368 0
DWIDTH 3 0
BBX 1 10 1 -2
BITMAP
40
50
50
40
50
50
40
40
40
40
ENDCHAR
STARTCHAR braceright
ENCODING 125
SWIDTH 476 0
DWIDTH 4 0
BBX 5 10 0 -2
BITMAP
9E8000
05F000
02F000
00C300
001900
003A00
000D00
000B10
002C00
03D500
ENDCHAR
STARTCHAR asciitilde
ENCODING 126
SWIDTH 733 0
DWIDTH 7 0
BBX 6 1 0 2
BITMAP
3DFFFB
ENDCHAR
STARTCHAR nonbreakingspace
ENCODING 160
SWIDTH 270 0
DWIDTH 2 0
BBX 1 1 0 0
BITMAP
00
ENDCHAR
STARTCHAR exclamdown
ENCODING 161
SWIDTH 247 0
DWIDTH 2 0
BBX 2 10 0 -1
BITMAP
67
00
01
25
27
39
4A
6B
7B
69
ENDCHAR
STARTCHAR cent
ENCODING 162
SWIDTH 799 0
DWIDTH 7 0
BBX 5 8 1 -2
BITMAP
021000
06FD40
3D4670
784000
5C4350
09EC10
000500
000200
ENDCHAR
STARTCHAR sterling
ENCODING 163
SWIDTH 799 0
DWIDTH 7 0
BBX 6 8 1 -1
BITMAP
05DD20
0D2870
1E0D50
3D6200
05C000
00D200
5EF322
7F9DD1
ENDCHAR
STARTCHAR currency
ENCODING 164
SWIDTH 732 0
DWIDTH 7 0
BBX 6 7 0 0
BITMAP
100150
2AEF90
281172
460181
0CFD80
090015
020000
ENDCHAR
STARTCHAR yen
ENCODING 165
SWIDTH 799 0
DWIDTH 7 0
BBX 7 10 0 -2
BITMAP
00130000
8FF20270
05F68D50
006E4200
000CA000
01EFFF90
005BFC00
000A8000
008FF800
00731000
ENDCHAR
STARTCHAR brokenbar
ENCODING 166
SWIDTH 341 0
DWIDTH 3 0
BBX 1 10 1 -2
BITMAP
40
40
50
40
20
40
50
50
50
50
ENDCHAR
STARTCHAR section
ENCODING 167
SWIDTH 546 0
DWIDTH 5 0
BBX 5 11 0 -3
BITMAP
06EC20
1C1A50
1E2000
1BE400
745D20
7A0360
1BC520
006B00
000530
000430
07F900
ENDCHAR
STARTCHAR dieresis
ENCODING 168
SWIDTH 393 0
DWIDTH 4 0
BBX 3 1 0 6
BITMAP
1AA0
ENDCHAR
STARTCHAR copyright
ENCODING 169
SWIDTH 1023 0
DWIDTH 9 0
BBX 9 8 0 -1
BITMAP
007DFD9200
0972036C20
362CE30380
6086240070
6088050070
532CD20450
0B62027B00
019EFD8000
ENDCHAR
STARTCHAR ordfeminine
ENCODING 170
SWIDTH 558 0
DWIDTH 5 0
BBX 5 5 0 2
BITMAP
3EB000
759300
1CF400
678640
4E9E50
ENDCHAR
STARTCHAR guillemotleft
ENCODING 171
SWIDTH 608 0
DWIDTH 5 0
BBX 5 8 0 -2
BITMAP
000020
000350
008260
196930
4F3A80
05B1B0
007570
000710
ENDCHAR
STARTCHAR logicalnot
ENCODING 172
SWIDTH 616 0
DWIDTH 6 0
BBX 6 3 0 2
BITMAP
7EDCD1
000061
000020
ENDCHAR
STARTCHAR uni00AD
ENCODING 173
SWIDTH 436 0
DWIDTH 4 0
BBX 4 2 0 2
BITMAP
1000
5EE4
ENDCHAR
STARTCHAR registered
ENCODING 174
SWIDTH 1048 0
DWIDTH 9 0
BBX 9 8 0 -2
BITMAP
006CFEA300
0AFFFD4A30
450B1D2060
700CF80040
701D982240
46DEECD170
0A82114B30
007DFDA200
ENDCHAR
STARTCHAR macron
ENCODING 175
SWIDTH 382 0
DWIDTH 3 0
BBX 3 1 0 7
BITMAP
5DE0
ENDCHAR
STARTCHAR degree
ENCODING 176
SWIDTH 346 0
DWIDTH 3 0
BBX 3 2 0 7
BITMAP
5E70
5E60
ENDCHAR
STARTCHAR plusminus
ENCODING 177
SWIDTH 580 0
DWIDTH 5 0
BBX 5 5 0 1
BITMAP
001000
006000
4FEC70
003000
7DCB10
ENDCHAR
STARTCHAR twosuperior
ENCODING 178
SWIDTH 365 0
DWIDTH 3 0
BBX 3 6 0 2
BITMAP
0B80
11D0
01A0
4510
1A60
0100
ENDCHAR
STARTCHAR threesuperior
ENCODING 179
SWIDTH 371 0
DWIDTH 3 0
BBX 4 4 0 4
BITMAP
8E10
3680
51C2
4EA0
ENDCHAR
STARTCHAR acute
ENCODING 180
SWIDTH 234 0
DWIDTH 2 0
BBX 2 2 0 7
BITMAP
17
51
ENDCHAR
STARTCHAR mu
ENCODING 181
SWIDTH 634 0
DWIDTH 6 0
BBX 6 8 0 -3
BITMAP
000100
930C20
940940
9A1C74
8BE9F8
850000
770000
690000
ENDCHAR
STARTCHAR paragraph
ENCODING 182
SWIDTH 707 0
DWIDTH 6 0
BBX 7 11 0 -3
BITMAP
00003500
4BEFF100
EFD0A000
DFC09000
29C09000
00B0A000
00B0C000
00B0D000
00C0E400
04F0EE40
5C800000
ENDCHAR
STARTCHAR periodcentered
ENCODING 183
SWIDTH 238 0
DWIDTH 2 0
BBX 2 1 0 3
BITMAP
69
ENDCHAR
STARTCHAR cedilla
ENCODING 184
SWIDTH 332 0
DWIDTH 3 0
BBX 3 3 0 -2
BITMAP
0400
0650
5E50
ENDCHAR
STARTCHAR onesuperior
ENCODING 185
SWIDTH 336 0
DWIDTH 3 0
BBX 3 4 0 4
BITMAP
0630
1720
4C40
6BB0
ENDCHAR
STARTCHAR ordmasculine
ENCODING 186
SWIDTH 503 0
DWIDTH 5 0
BBX 5 4 0 3
BITMAP
2DE800
712C20
950830
2CE900
ENDCHAR
STARTCHAR guillemotright
ENCODING 187
SWIDTH 778 0
DWIDTH 7 0
BBX 7 9 0 -3
BITMAP
00120000
40071000
1A31A300
02CC3E40
0094B700
06466000
06090000
11150000
00010000
ENDCHAR
STARTCHAR onequarter
ENCODING 188
SWIDTH 876 0
DWIDTH 8 0
BBX 8 10 0 -1
BITMAP
00000010
06300230
17200600
4C407100
6BB43600
00260B10
00701862
0511CFF3
24002EFA
00000100
ENDCHAR
STARTCHAR onehalf
ENCODING 189
SWIDTH 762 0
DWIDTH 7 0
BBX 7 10 0 -1
BITMAP
00000010
06300230
17200600
4C407100
6BB47D20
00262770
00700830
05116300
24006A20
00000200
ENDCHAR
STARTCHAR threequarters
ENCODING 190
SWIDTH 922 0
DWIDTH 8 0
BBX 9 10 0 -1
BITMAP
0000001100
8E10006000
3680042000
51C2250000
4EA0715000
0006167000
0033029400
01607EF900
050019FF10
0000010000
ENDCHAR
STARTCHAR questiondown
ENCODING 191
SWIDTH 571 0
DWIDTH 5 0
BBX 5 8 0 -1
BITMAP
00C500
000000
005000
007000
1B5E90
9B06E0
BD22A0
3CFD30
ENDCHAR
STARTCHAR Agrave
ENCODING 192
SWIDTH 784 0
DWIDTH 7 0
BBX 8 10 0 0
BITMAP
07400000
00800000
07EE1000
004C5000
0066B000
0072F100
05EEF700
0902BC00
ED203F50
1520DFF2
ENDCHAR
STARTCHAR Aacute
ENCODING 193
SWIDTH 784 0
DWIDTH 7 0
BBX 8 10 0 0
BITMAP
00080000
00150000
07EE1000
004C5000
0066B000
0072F100
05EEF700
0902BC00
ED203F50
1520DFF2
ENDCHAR
STARTCHAR Acircumflex
ENCODING 194
SWIDTH 784 0
DWIDTH 7 0
BBX 8 10 0 0
BITMAP
001B4000
0142C200
07EE1000
004C5000
0066B000
0072F100
05EEF700
0902BC00
ED203F50
1520DFF2
ENDCHAR
STARTCHAR Atilde
ENCODING 195
SWIDTH 784 0
DWIDTH 7 0
BBX 8 8 0 0
BITMAP
09FF9000
004C5000
0066B000
0072F100
05EEF700
0902BC00
ED203F50
1520DFF2
ENDCHAR
STARTCHAR Adieresis
ENCODING 196
SWIDTH 784 0
DWIDTH 7 0
BBX 8 9 0 0
BITMAP
00C58000
07EE1000
004C5000
0066B000
0072F100
05EEF700
0902BC00
ED203F50
1520DFF2
ENDCHAR
STARTCHAR Aring
ENCODING 197
SWIDTH 784 0
DWIDTH 7 0
BBX 8 9 0 0
BITMAP
007E3000
07FF4000
004C5000
0066B000
0072F100
05EEF700
0902BC00
ED203F50
1520DFF2
ENDCHAR
STARTCHAR AE
ENCODING 198
SWIDTH 1172 0
DWIDTH 11 0
BBX 11 9 0 -1
BITMAP
00000259C000
0008FDC76000
000038601000
000017925000
000217FD6030
000AFFD04350
005604F22B60
059004E84100
EEE415100000
ENDCHAR
STARTCHAR Ccedilla
ENCODING 199
SWIDTH 742 0
DWIDTH 7 0
BBX 7 11 0 -4
BITMAP
00000400
06DFEE00
6E413D00
C8000330
E6000000
CA000040
6F711650
06DFD700
00051000
0001A000
002E8000
ENDCHAR
STARTCHAR Egrave
ENCODING 200
SWIDTH 557 0
DWIDTH 5 0
BBX 5 12 0 -2
BITMAP
290000
053000
000000
546B70
5F2040
0F1000
0D2200
0BE500
094410
085060
BFFDD0
001330
ENDCHAR
STARTCHAR Eacute
ENCODING 201
SWIDTH 557 0
DWIDTH 5 0
BBX 5 12 0 -2
BITMAP
002600
006100
000000
546B70
5F2040
0F1000
0D2200
0BE500
094410
085060
BFFDD0
001330
ENDCHAR
STARTCHAR Ecircumflex
ENCODING 202
SWIDTH 557 0
DWIDTH 5 0
BBX 5 12 0 -2
BITMAP
01A500
041B30
000000
546B70
5F2040
0F1000
0D2200
0BE500
094410
085060
BFFDD0
001330
ENDCHAR
STARTCHAR Edieresis
ENCODING 203
SWIDTH 557 0
DWIDTH 5 0
BBX 5 11 0 -2
BITMAP
0B5900
000000
546B70
5F2040
0F1000
0D2200
0BE500
094410
085060
BFFDD0
001330
ENDCHAR
STARTCHAR Igrave
ENCODING 204
SWIDTH 438 0
DWIDTH 4 0
BBX 6 12 -1 -2
BITMAP
029000
005300
2DDDE6
02DB10
00B600
00B400
00B200
00B100
00B000
00C100
08FF10
351000
ENDCHAR
STARTCHAR Iacute
ENCODING 205
SWIDTH 438 0
DWIDTH 4 0
BBX 6 12 -1 -2
BITMAP
000440
000600
2DDDE6
02DB10
00B600
00B400
00B200
00B100
00B000
00C100
08FF10
351000
ENDCHAR
STARTCHAR Icircumflex
ENCODING 206
SWIDTH 438 0
DWIDTH 4 0
BBX 6 12 -1 -2
BITMAP
003A30
0143C0
2DDDE6
02DB10
00B600
00B400
00B200
00B100
00B000
00C100
08FF10
351000
ENDCHAR
STARTCHAR Idieresis
ENCODING 207
SWIDTH 438 0
DWIDTH 4 0
BBX 6 11 -1 -2
BITMAP
02C740
2DDDE6
02DB10
00B600
00B400
00B200
00B100
00B000
00C100
08FF10
351000
ENDCHAR
STARTCHAR Eth
ENCODING 208
SWIDTH 730 0
DWIDTH 7 0
BBX 7 7 0 -2
BITMAP
7CEFD700
2A619F50
08600F90
8EE21F80
19719E20
1EFD9200
74100000
ENDCHAR
STARTCHAR Ntilde
ENCODING 209
SWIDTH 799 0
DWIDTH 7 0
BBX 8 11 0 -3
BITMAP
001EFA00
01000010
EFA07EE2
0BF90710
058F8500
040AFC00
0400BD00
04001900
19000000
DFA00000
00300000
ENDCHAR
STARTCHAR Ograve
ENCODING 210
SWIDTH 747 0
DWIDTH 7 0
BBX 7 10 0 0
BITMAP
04600000
00710000
00000000
06DFB300
6C219E20
C4000D70
E3000AA0
C6000A80
6E415E20
06DFC400
ENDCHAR
STARTCHAR Oacute
ENCODING 211
SWIDTH 747 0
DWIDTH 7 0
BBX 7 10 0 0
BITMAP
00080000
00150000
00000000
06DFB300
6C219E20
C4000D70
E3000AA0
C6000A80
6E415E20
06DFC400
ENDCHAR
STARTCHAR Ocircumflex
ENCODING 212
SWIDTH 747 0
DWIDTH 7 0
BBX 7 9 0 0
BITMAP
004A2000
0234B000
06DFB300
6C219E20
C4000D70
E3000AA0
C6000A80
6E415E20
06DFC400
ENDCHAR
STARTCHAR Otilde
ENCODING 213
SWIDTH 747 0
DWIDTH 7 0
BBX 7 8 0 0
BITMAP
01DFB000
06DFB300
6C219E20
C4000D70
E3000AA0
C6000A80
6E415E20
06DFC400
ENDCHAR
STARTCHAR Odieresis
ENCODING 214
SWIDTH 747 0
DWIDTH 7 0
BBX 7 9 0 0
BITMAP
00D57000
00000000
06DFB300
6C219E20
C4000D70
E3000AA0
C6000A80
6E415E20
06DFC400
ENDCHAR
STARTCHAR multiply
ENCODING 215
SWIDTH 541 0
DWIDTH 5 0
BBX 5 6 0 0
BITMAP
000010
000510
065200
029300
060200
410000
ENDCHAR
STARTCHAR Oslash
ENCODING 216
SWIDTH 747 0
DWIDTH 7 0
BBX 7 9 0 -1
BITMAP
00000230
06DEB700
6C21AE20
C4026D80
E3160AA0
C6600A80
6F415E20
1ADFC400
30000000
ENDCHAR
STARTCHAR Ugrave
ENCODING 217
SWIDTH 690 0
DWIDTH 6 0
BBX 7 10 0 0
BITMAP
00740000
00080000
00000000
00000000
13790000
EFC9EE90
1E602800
0D600500
0AC14500
02CFB000
ENDCHAR
STARTCHAR Uacute
ENCODING 218
SWIDTH 690 0
DWIDTH 6 0
BBX 7 9 0 0
BITMAP
00000800
00004200
00000000
13790000
EFC9EE90
1E602800
0D600500
0AC14500
02CFB000
ENDCHAR
STARTCHAR Ucircumflex
ENCODING 219
SWIDTH 690 0
DWIDTH 6 0
BBX 7 9 0 0
BITMAP
00087000
00418700
00000000
13790000
EFC9EE90
1E602800
0D600500
0AC14500
02CFB000
ENDCHAR
STARTCHAR Udieresis
ENCODING 220
SWIDTH 690 0
DWIDTH 6 0
BBX 7 9 0 0
BITMAP
0068B000
00000000
00000000
13790000
EFC9EE90
1E602800
0D600500
0AC14500
02CFB000
ENDCHAR
STARTCHAR Yacute
ENCODING 221
SWIDTH 796 0
DWIDTH 7 0
BBX 8 12 0 -2
BITMAP
00000700
00004200
01410220
DFB105FE
19C10330
009D6300
000B9000
00068000
00069000
000AA000
00CFF400
00003200
ENDCHAR
STARTCHAR Thorn
ENCODING 222
SWIDTH 479 0
DWIDTH 4 0
BBX 5 10 0 -2
BITMAP
AFB000
1D1000
0EFC20
0B1C70
0EED20
0C0000
1C0000
3D0000
AF8000
101000
ENDCHAR
STARTCHAR germandbls
ENCODING 223
SWIDTH 591 0
DWIDTH 5 0
BBX 7 10 -1 -1
BITMAP
07E90000
091C1000
08090000
08120000
0A6FB300
0833BD00
06700D20
03C00A10
05D8E800
14000000
ENDCHAR
STARTCHAR agrave
ENCODING 224
SWIDTH 527 0
DWIDTH 5 0
BBX 5 9 0 -1
BITMAP
820000
170000
3ED100
578700
004A00
5DFD00
C33F00
8E9D60
0007C0
ENDCHAR
STARTCHAR aacute
ENCODING 225
SWIDTH 527 0
DWIDTH 5 0
BBX 5 9 0 -1
BITMAP
006200
006000
3ED100
578700
004A00
5DFD00
C33F00
8E9D60
0007C0
ENDCHAR
STARTCHAR acircumflex
ENCODING 226
SWIDTH 527 0
DWIDTH 5 0
BBX 5 9 0 -1
BITMAP
04A200
234B00
3ED100
578700
004A00
5DFD00
C33F00
8E9D60
0007C0
ENDCHAR
STARTCHAR atilde
ENCODING 227
SWIDTH 527 0
DWIDTH 5 0
BBX 5 7 0 -1
BITMAP
3FFC00
578700
004A00
5DFD00
C33F00
8E9D60
0007C0
ENDCHAR
STARTCHAR adieresis
ENCODING 228
SWIDTH 527 0
DWIDTH 5 0
BBX 5 8 0 -1
BITMAP
1AA000
3ED100
578700
004A00
5DFD00
C33F00
8E9D60
0007C0
ENDCHAR
STARTCHAR aring
ENCODING 229
SWIDTH 527 0
DWIDTH 5 0
BBX 5 8 0 -1
BITMAP
09E100
3FF300
578700
004A00
5DFD00
C33F00
8E9D60
0007C0
ENDCHAR
STARTCHAR ae
ENCODING 230
SWIDTH 700 0
DWIDTH 6 0
BBX 7 6 0 -1
BITMAP
0005E900
6E423C00
83EFD400
3DF10310
B2CA1710
9E4CF800
ENDCHAR
STARTCHAR ccedilla
ENCODING 231
SWIDTH 437 0
DWIDTH 4 0
BBX 4 8 0 -2
BITMAP
1CE5
93A7
B004
B517
3DE4
0260
02A2
07D1
ENDCHAR
STARTCHAR egrave
ENCODING 232
SWIDTH 434 0
DWIDTH 4 0
BBX 4 8 0 0
BITMAP
4600
0710
0000
1BE6
964B
CFD4
B705
3CE6
ENDCHAR
STARTCHAR eacute
ENCODING 233
SWIDTH 434 0
DWIDTH 4 0
BBX 4 8 0 0
BITMAP
0071
0060
0000
1BE6
964B
CFD4
B705
3CE6
ENDCHAR
STARTCHAR ecircumflex
ENCODING 234
SWIDTH 434 0
DWIDTH 4 0
BBX 4 8 0 0
BITMAP
04A2
234B
0000
1BE6
964B
CFD4
B705
3CE6
ENDCHAR
STARTCHAR edieresis
ENCODING 235
SWIDTH 434 0
DWIDTH 4 0
BBX 4 7 0 0
BITMAP
0A92
0000
1BE6
964B
CFD4
B705
3CE6
ENDCHAR
STARTCHAR igrave
ENCODING 236
SWIDTH 301 0
DWIDTH 3 0
BBX 4 8 -1 1
BITMAP
3800
0720
0000
0DF0
02D0
01C0
03B0
0CF8
ENDCHAR
STARTCHAR iacute
ENCODING 237
SWIDTH 301 0
DWIDTH 3 0
BBX 3 7 0 1
BITMAP
0620
0600
DF00
2D00
1C00
3B00
CF80
ENDCHAR
STARTCHAR icircumflex
ENCODING 238
SWIDTH 301 0
DWIDTH 3 0
BBX 5 7 -1 1
BITMAP
02B300
142C10
0DF000
02D000
01C000
03B000
0CF800
ENDCHAR
STARTCHAR idieresis
ENCODING 239
SWIDTH 301 0
DWIDTH 3 0
BBX 3 6 0 1
BITMAP
7850
DF00
2D00
1C00
3B00
CF80
ENDCHAR
STARTCHAR eth
ENCODING 240
SWIDTH 476 0
DWIDTH 4 0
BBX 6 8 -1 -1
BITMAP
000200
5DEA00
003870
0000C0
02CEF1
0771C2
07A1A0
01BE70
ENDCHAR
STARTCHAR ntilde
ENCODING 241
SWIDTH 584 0
DWIDTH 5 0
BBX 6 7 0 -1
BITMAP
04DFB0
6B3E70
1C34C0
0B11C0
0823B0
4FCFA0
001151
ENDCHAR
STARTCHAR ograve
ENCODING 242
SWIDTH 400 0
DWIDTH 4 0
BBX 6 7 0 2
BITMAP
00001D
830008
180006
000292
6ABC30
D2A400
7ED300
ENDCHAR
STARTCHAR oacute
ENCODING 243
SWIDTH 400 0
DWIDTH 4 0
BBX 6 7 0 2
BITMAP
00001D
007108
006006
000292
6ABC30
D2A400
7ED300
ENDCHAR
STARTCHAR ocircumflex
ENCODING 244
SWIDTH 400 0
DWIDTH 4 0
BBX 6 7 0 2
BITMAP
00001D
059108
226906
000292
6ABC30
D2A400
7ED300
ENDCHAR
STARTCHAR otilde
ENCODING 245
SWIDTH 400 0
DWIDTH 4 0
BBX 6 7 0 2
BITMAP
00001D
000008
000006
1EFC92
6ABC30
D2A400
7ED300
ENDCHAR
STARTCHAR odieresis
ENCODING 246
SWIDTH 400 0
DWIDTH 4 0
BBX 6 7 0 2
BITMAP
00001D
000008
0B9106
000292
6ABC30
D2A400
7ED300
ENDCHAR
STARTCHAR divide
ENCODING 247
SWIDTH 592 0
DWIDTH 5 0
BBX 5 4 0 1
BITMAP
00C000
000000
7EDDB0
00B000
ENDCHAR
STARTCHAR oslash
ENCODING 248
SWIDTH 396 0
DWIDTH 4 0
BBX 4 6 0 0
BITMAP
0030
6ED2
C7B6
7FC1
2300
1000
ENDCHAR
STARTCHAR ugrave
ENCODING 249
SWIDTH 744 0
DWIDTH 7 0
BBX 7 7 0 0
BITMAP
00A00000
00450000
BE0AF300
0B209500
09509700
06A19FA0
01DD2200
ENDCHAR
STARTCHAR uacute
ENCODING 250
SWIDTH 744 0
DWIDTH 7 0
BBX 7 7 0 0
BITMAP
00080000
00150000
BE0AF300
0B209500
09509700
06A19FA0
01DD2200
ENDCHAR
STARTCHAR ucircumflex
ENCODING 251
SWIDTH 744 0
DWIDTH 7 0
BBX 7 7 0 0
BITMAP
00781000
03278000
BE0AF300
0B209500
09509700
06A19FA0
01DD2200
ENDCHAR
STARTCHAR udieresis
ENCODING 252
SWIDTH 744 0
DWIDTH 7 0
BBX 7 7 0 0
BITMAP
00A92000
00000000
BE0AF300
0B209500
09509700
06A19FA0
01DD2200
ENDCHAR
STARTCHAR yacute
ENCODING 253
SWIDTH 659 0
DWIDTH 6 0
BBX 6 11 0 -4
BITMAP
000350
000600
179001
CE1AFC
3E00C5
0E61D4
05EBB2
0000B0
000190
0BBA40
0BE700
ENDCHAR
STARTCHAR thorn
ENCODING 254
SWIDTH 514 0
DWIDTH 5 0
BBX 6 12 -1 -5
BITMAP
6FA000
094000
07DE80
0673F3
0570C6
05A1E6
05DEC1
04A000
04B000
05C000
06E100
2FFF00
ENDCHAR
STARTCHAR ydieresis
ENCODING 255
SWIDTH 659 0
DWIDTH 6 0
BBX 6 11 0 -4
BITMAP
006870
000000
179001
CE1AFC
3E00C5
0E61D4
05EBB2
0000B0
000190
0BBA40
0BE700
ENDCHAR
STARTCHAR dotlessi
ENCODING 305
SWIDTH 301 0
DWIDTH 3 0
BBX 3 5 0 1
BITMAP
DF00
2D00
1C00
3B00
CF80
ENDCHAR
STARTCHAR OE
ENCODING 338
SWIDTH 1132 0
DWIDTH 10 0
BBX 11 10 0 -2
BITMAP
000000017100
06DEB9FFD200
6D316EC10000
C60008C00000
E50004D15000
BB0004FC9000
5F812CF03000
05CFC5F21520
000009FFFF20
000026210100
ENDCHAR
STARTCHAR oe
ENCODING 339
SWIDTH 798 0
DWIDTH 7 0
BBX 7 4 0 1
BITMAP
4DD4AE60
C25EFE40
B71DB150
3DE6DF90
ENDCHAR
STARTCHAR circumflex
ENCODING 710
SWIDTH 483 0
DWIDTH 4 0
BBX 4 2 0 6
BITMAP
04A2
234B
ENDCHAR
STARTCHAR caron
ENCODING 711
SWIDTH 428 0
DWIDTH 4 0
BBX 4 3 0 6
BITMAP
0001
3650
0720
ENDCHAR
STARTCHAR ring
ENCODING 730
SWIDTH 330 0
DWIDTH 3 0
BBX 3 2 0 7
BITMAP
5E50
5E50
ENDCHAR
STARTCHAR tilde
ENCODING 732
SWIDTH 433 0
DWIDTH 4 0
BBX 4 1 0 6
BITMAP
5FF5
ENDCHAR
STARTCHAR mu.dup1
ENCODING 956
SWIDTH 634 0
DWIDTH 6 0
BBX 6 8 0 -3
BITMAP
000100
930C20
940940
9A1C74
8BE9F8
850000
770000
690000
ENDCHAR
STARTCHAR endash
ENCODING 8211
SWIDTH 436 0
DWIDTH 4 0
BBX 4 2 0 2
BITMAP
1000
5EE4
ENDCHAR
STARTCHAR emdash
ENCODING 8212
SWIDTH 651 0
DWIDTH 6 0
BBX 6 2 0 1
BITMAP
048CE5
232100
ENDCHAR
STARTCHAR quoteleft
ENCODING 8216
SWIDTH 287 0
DWIDTH 3 0
BBX 2 3 0 5
BITMAP
16
7A
6C
ENDCHAR
STARTCHAR quoteright
ENCODING 8217
SWIDTH 291 0
DWIDTH 3 0
BBX 3 3 0 4
BITMAP
6D10
2C20
0600
ENDCHAR
STARTCHAR quotesinglbase
ENCODING 8218
SWIDTH 272 0
DWIDTH 2 0
BBX 2 3 0 -2
BITMAP
6C
2B
04
ENDCHAR
STARTCHAR quotedblleft
ENCODING 8220
SWIDTH 445 0
DWIDTH 4 0
BBX 4 3 0 4
BITMAP
0642
68A3
6C97
ENDCHAR
STARTCHAR quotedblright
ENCODING 8221
SWIDTH 444 0
DWIDTH 4 0
BBX 4 3 0 5
BITMAP
6BB6
2B76
1550
ENDCHAR
STARTCHAR quotedblbase
ENCODING 8222
SWIDTH 482 0
DWIDTH 4 0
BBX 4 3 0 -2
BITMAP
6D7B
2D3B
0533
ENDCHAR
STARTCHAR bullet
ENCODING 8226
SWIDTH 351 0
DWIDTH 3 0
BBX 3 2 0 3
BITMAP
5E70
5F70
ENDCHAR
STARTCHAR guilsinglleft
ENCODING 8249
SWIDTH 465 0
DWIDTH 4 0
BBX 4 6 0 -1
BITMAP
0031
0170
2C10
2B60
0092
0004
ENDCHAR
STARTCHAR guilsinglright
ENCODING 8250
SWIDTH 449 0
DWIDTH 4 0
BBX 4 6 0 -1
BITMAP
2200
0920
03E4
0970
2800
4000
ENDCHAR
STARTCHAR fraction
ENCODING 8260
SWIDTH 406 0
DWIDTH 4 0
BBX 7 9 -2 0
BITMAP
00000010
00000240
00000700
00006100
00043000
00160000
00700000
05200000
24000000
ENDCHAR
STARTCHAR foursuperior
ENCODING 8308
SWIDTH 473 0
DWIDTH 4 0
BBX 5 6 0 2
BITMAP
014000
066000
039400
8EF800
1AFF10
010000
ENDCHAR
STARTCHAR Euro
ENCODING 8364
SWIDTH 799 0
DWIDTH 7 0
BBX 8 8 0 0
BITMAP
00000001
003BEC74
03F713D0
0AB22040
4EB51000
7D800130
07E31710
008EE500
ENDCHAR
STARTCHAR minus
ENCODING 8722
SWIDTH 436 0
DWIDTH 4 0
BBX 4 2 0 2
BITMAP
1000
5EE4
ENDCHAR
STARTCHAR f_f
ENCODING 64256
SWIDTH 467 0
DWIDTH 4 0
BBX 6 14 0 -3
BITMAP
03E800
077900
071CE2
1685D2
269000
379100
7FFC10
37A000
298300
1C4A00
0E3F90
0D8400
1D9000
BEF700
ENDCHAR
STARTCHAR .notdef
ENCODING -1
SWIDTH 270 0
DWIDTH 2 0
BBX 3 6 0 0
BITMAP
AF10
0000
0000
0000
0000
AF10
ENDCHAR
STARTCHAR .null
ENCODING -1
SWIDTH 0 0
DWIDTH 0 0
BBX 1 1 0 0
BITMAP
00
ENDCHAR
STARTCHAR nonmarkingreturn
ENCODING -1
SWIDTH 270 0
DWIDTH 2 0
BBX 1 1 0 0
BITMAP
00
ENDCHAR
STARTCHAR dieresis.case
ENCODING -1
SWIDTH 393 0
DWIDTH 4 0
BBX 3 1 0 7
BITMAP
68B0
ENDCHAR
STARTCHAR o.cmp
ENCODING -1
SWIDTH 400 0
DWIDTH 4 0
BBX 6 7 0 2
BITMAP
00001D
000008
000006
000292
6ABC30
D2A400
7ED300
ENDCHAR
STARTCHAR n_n
ENCODING -1
SWIDTH 1024 0
DWIDTH 9 0
BBX 9 6 0 -1
BITMAP
DB6E7D7000
0D54C6BEA0
0B11C783C0
0823ADEFE0
4FBFD20020
0010420000
ENDCHAR
STARTCHAR a_a
ENCODING -1
SWIDTH 911 0
DWIDTH 8 0
BBX 9 6 0 -1
BITMAP
6E709E9000
92A0D1B200
4EE4DED400
C5CD94C400
9E7FFCC700
0000004E60
ENDCHAR
STARTCHAR t_h
ENCODING -1
SWIDTH 854 0
DWIDTH 8 0
BBX 9 11 -1 -2
BITMAP
001FF50000
0000840000
0046830000
1DFFFC0000
00B3920000
00C1A9EC20
00D2C7CB70
00A8D2A860
002BFD3A30
001FFF2E20
000001FF90
ENDCHAR
STARTCHAR s_s
ENCODING -1
SWIDTH 654 0
DWIDTH 6 0
BBX 7 8 -1 -1
BITMAP
00001020
009DDE70
0093C150
00144400
05017910
1878C690
00AE7AA0
001BFC30
ENDCHAR
STARTCHAR t_t
ENCODING -1
SWIDTH 569 0
DWIDTH 5 0
BBX 6 8 0 -1
BITMAP
006620
17CD10
DFE300
2CA200
3B8791
2C2DD0
0D3870
04DE30
ENDCHAR
STARTCHAR e_e
ENCODING -1
SWIDTH 782 0
DWIDTH 7 0
BBX 7 5 0 0
BITMAP
4DB5EC10
C39D3630
ED4D0710
B81A9950
1AFEFE80
ENDCHAR
STARTCHAR o_o
ENCODING -1
SWIDTH 751 0
DWIDTH 7 0
BBX 10 8 0 1
BITMAP
00000000D2
0000000062
0000000070
0000002850
3CFD99D500
B51D176000
C31DED4000
4DD2000000
ENDCHAR
STARTCHAR l_l
ENCODING -1
SWIDTH 573 0
DWIDTH 5 0
BBX 7 9 -1 -1
BITMAP
048DF100
3D91F100
0590F000
0490E100
04A0D200
05A0D600
05B2DF20
6FC00000
02630000
ENDCHAR
STARTCHAR z_z
ENCODING -1
SWIDTH 875 0
DWIDTH 8 0
BBX 9 6 -1 -1
BITMAP
000AFF4000
06FF770000
002B635000
0093EFF000
04700002D0
1DEFFFFE70
ENDCHAR
STARTCHAR j_j
ENCODING -1
SWIDTH 577 0
DWIDTH 5 0
BBX 6 12 -1 -6
BITMAP
000590
008430
000AF4
07FDB9
006F4C
000E1D
000B1C
000A1A
AB0A09
915A09
8EFE27
001DB1
ENDCHAR
STARTCHAR f_b
ENCODING -1
SWIDTH 731 0
DWIDTH 7 0
BBX 8 12 -1 -2
BITMAP
002DD100
00829300
0096C200
01B6E500
3DC4B500
13C06500
01C06500
01D06EE4
01D06698
01E1CFE4
02FF2000
04100000
ENDCHAR
STARTCHAR f_k
ENCODING -1
SWIDTH 708 0
DWIDTH 6 0
BBX 7 11 0 -2
BITMAP
01800000
3DEE6000
02A97000
08B00000
78B11000
28B0D700
38B93200
48B88240
BAB5BD10
0AFF8000
01000000
ENDCHAR
STARTCHAR f_h
ENCODING -1
SWIDTH 873 0
DWIDTH 8 0
BBX 9 12 -1 -2
BITMAP
001CD10000
0073A30000
0074B90000
00A7F90000
03F9380000
4EB0370000
02C04AED10
01D06A1D20
01D0962FC0
01E8FB1110
05FD120000
0410000000
ENDCHAR
ENDFONT
